<?xml version="1.0" standalone="no"?>
<!DOCTYPE svg PUBLIC "-//W3C//DTD SVG 20010904//EN"
 "http://www.w3.org/TR/2001/REC-SVG-20010904/DTD/svg10.dtd">
<svg version="1.0" xmlns="http://www.w3.org/2000/svg"
 width="720.000000pt" height="720.000000pt" viewBox="0 0 720.000000 720.000000"
 preserveAspectRatio="xMidYMid meet">
<metadata>
Created by potrace 1.14, written by Peter Selinger 2001-2017
</metadata>
<g transform="translate(0.000000,720.000000) scale(0.100000,-0.100000)"
fill="#000000" stroke="none">
<path d="M3458 7195 c-2 -1 -37 -5 -78 -9 -445 -38 -916 -236 -1290 -544 -98
-80 -313 -304 -391 -407 -253 -334 -412 -701 -475 -1100 -22 -136 -25 -467 -5
-600 48 -334 162 -621 403 -1020 139 -230 208 -329 538 -770 508 -681 664
-922 900 -1390 186 -370 341 -746 481 -1173 29 -89 56 -162 59 -162 3 0 30 73
59 162 209 635 472 1213 775 1702 149 241 258 395 596 846 360 481 487 667
653 960 165 292 276 611 304 881 10 92 10 412 0 496 -30 259 -116 534 -247
790 -295 577 -810 1020 -1420 1224 -63 21 -126 40 -140 43 -14 2 -54 11 -90
20 -85 20 -142 29 -245 41 -56 7 -381 15 -387 10z"/>
</g>
</svg>
